<svg xmlns="http://www.w3.org/2000/svg" viewBox="0 0 850.39 198.43"><defs><style>.cls-1{fill:#fff;}</style></defs><g id="圖層_2" data-name="圖層 2"><path class="cls-1" d="M546.19,41.73H459.75c-4.3,0-5.42,2-5.42,5.4V62.59c0,3.22,1.05,5.23,4.91,5.39h24.29c3.87.17,4.9,2.18,4.9,5.39v85.53c0,4.29,2.05,5.41,5.41,5.41h18.44c3.35,0,5.4-1.12,5.4-5.41l0-85.53c0-3.21,1-5.22,4.9-5.39h23.58c4.29,0,5.4-2.06,5.4-5.4V47.13c0-3.36-1.11-5.4-5.4-5.4"/><path class="cls-1" d="M442.61,41.73H421.18c-4.28,0-6.14.55-8.76,5.59,0,0,0,0,0,.06s0,.08-.06.13a.93.93,0,0,0-.11.19c-.05.09-.1.17-.15.27l-.17.32c-.08.12-.15.27-.23.39Q404.82,61.33,397.9,74c-.15.32-.33.64-.5,1s-.33.62-.51.92-.32.6-.47.88-.32.6-.48.88-.3.55-.46.84-.29.52-.42.79c-.7,1.3-1.37,2.63-2.13,3.89-.46.7-1,2.08-2.29,2.08s-1.86-1.38-2.3-2.08c-.78-1.26-1.43-2.59-2.13-3.89-.14-.27-.28-.53-.43-.79s-.31-.57-.46-.84-.31-.57-.47-.88l-.49-.88c-.16-.3-.34-.62-.49-.92l-.53-1q-6.85-12.64-13.77-25.29a10.45,10.45,0,0,0-.38-.71l-.13-.27a2,2,0,0,1-.12-.19.81.81,0,0,0-.06-.13l0-.06c-2.61-5-4.48-5.59-8.76-5.59H338.66c-3.55,0-3.91,3.17-3,5.21l39.87,71.36v40.61c0,4.29,1.87,5.41,5.4,5.41h19.36c3.54,0,5.41-1.12,5.41-5.41V118.3l39.86-71.36c.94-2,.56-5.21-3-5.21"/><path class="cls-1" d="M656.23,138.24H596.8V113.65h49.93c4.27,0,5.4-2.06,5.4-5.4V93.7c0-3.34-1.13-5.4-5.4-5.4H596.8V78.2h0V73.38c0-.09,0-.17,0-.26V68h4.89a4,4,0,0,1,.5,0h51.37c3.86-.16,4.91-2.17,4.91-5.39V47.13c0-3.37-1.12-5.4-5.41-5.4h-80.3c-4.27,0-5.4,2-5.4,5.4V158.92c0,3.36,1.13,5.4,5.4,5.4h83.47c4.28,0,5.41-2,5.41-5.4V143.64c0-3.36-1.13-5.4-5.41-5.4"/><path class="cls-1" d="M781.36,41.73H757.85c-2.27,0-4.71-.22-6.76.82a17.2,17.2,0,0,0-4.57,4.06q-2.32,2.53-4.62,5.09L729.47,65.38q-6.35,7-12.72,14c-1.63,1.8-3.27,3.61-4.91,5.4-.62.68-1.63,2.12-2.73,1.74s-.79-2-.79-2.85V49a18.07,18.07,0,0,0-.19-3.89,4,4,0,0,0-3.57-3.26,16.17,16.17,0,0,0-2.51-.09H685a8.44,8.44,0,0,0-3.49.5c-1.88.84-2.26,2.92-2.29,4.78,0,1.67,0,3.35,0,5V155c0,2.1-.34,4.89.44,6.85,1,2.63,4,2.5,6.34,2.5h16.84a6.45,6.45,0,0,0,3.66-.81c1.49-1,1.78-2.95,1.78-4.61,0-4.59,0-9.18,0-13.78V127.26a5.49,5.49,0,0,1,0-1.46c.13-.35.63-.72.88-1,2.16-2.25,4.3-4.5,6.45-6.75l4.22-4.42q8,13.38,16,26.81L746.3,158c1.9,3.19,4.39,5.88,8.27,6.26,2.14.2,4.34.06,6.46.06,5.84,0,11.67.1,17.49,0,3.49-.06,4.3-3.55,2.71-6.16-.81-1.35-1.64-2.69-2.45-4.06q-5.25-8.64-10.52-17.32c-3.28-5.38-6.56-10.79-9.82-16.17-1.53-2.51-3-5-4.55-7.5q-5-8.2-10-16.42a6.56,6.56,0,0,1-1.09-2.58,6,6,0,0,1,1.6-5.07c2.15-2.35,4.32-4.69,6.48-7l1.79-2c0-.24.73-.82.93-1l2.67-2.91q4.31-4.64,8.57-9.28l9.79-10.62c2.36-2.56,4.74-5.15,7.12-7.71.45-.51.93-1,1.39-1.53,1.14-1.25,1.77-3.54.16-4.72a3.4,3.4,0,0,0-2-.53"/><path class="cls-1" d="M317.08,41.53H298.64a8.4,8.4,0,0,0-7.28,4.21c-8.28,12.8-16.49,24.68-25.32,38.61-.16.24-.3.47-.44.71-.69,1.22-1.38,1.24-1.85,1.26a2,2,0,0,1-1.88-1.26l-.42-.71c-8.84-13.93-17-25.81-25.34-38.61a8.36,8.36,0,0,0-7.27-4.21H210.4c-4.29,0-5.41,2-5.41,5.41v112c0,4.27,2.06,5.4,5.41,5.4h18.44c3.36,0,5.4-1.13,5.4-5.4V95.11s14.56,20.57,14.66,20.69c3.46,4.27,7.24,8.78,13,9.54a11.27,11.27,0,0,0,1.81.11h0a11.09,11.09,0,0,0,1.79-.11c5.78-.76,9.55-5.27,13-9.54.11-.12,14.66-20.69,14.66-20.69v63.81c0,4.27,2,5.4,5.4,5.4h18.44c3.36,0,5.4-1.13,5.4-5.4v-112c0-3.36-1.11-5.41-5.4-5.41"/><path class="cls-1" d="M149.55,137.73v-26.6c-3.33,2.63-6.4,5.74-9.48,8.52-.75.68-1.53,1.34-2.33,2-.05,0-.06.06-.11.09a.35.35,0,0,1-.09.06,19.89,19.89,0,0,1-3.19,2,15.86,15.86,0,0,1-13.55,0,19.89,19.89,0,0,1-3.19-2l-.08-.06-.12-.09c-.81-.63-1.58-1.29-2.33-2-3.07-2.78-6.15-5.89-9.47-8.52V156.2c0,6.44,3.07,8.12,8.11,8.12h27.7c5,0,8.11-1.68,8.11-8.12l0-16.79Z"/><path class="cls-1" d="M183.66,41.53H71.51c-4.3,0-5.42,2-5.42,5.41v17.9a11.16,11.16,0,0,0,.07,1.22,2.5,2.5,0,0,0,.07.41,5,5,0,0,0,.1.6,3.68,3.68,0,0,0,2.15,2.67,5.71,5.71,0,0,0,2.07.34h19.9a17.85,17.85,0,0,1,2.44.17c9.15,1.13,15.65,8.46,22.19,14.39a26.34,26.34,0,0,0,5.72,4.18,15.77,15.77,0,0,0,13.55,0,26.46,26.46,0,0,0,5.74-4.18c6.51-5.91,13-13.2,22.07-14.37a17.58,17.58,0,0,1,2.55-.19h19.9a5.74,5.74,0,0,0,2-.32l.35-.16.33-.17A4.23,4.23,0,0,0,189,66.08c0-.38.07-.79.07-1.24V46.94c0-3.36-1.13-5.41-5.41-5.41"/></g></svg>