<svg xmlns="http://www.w3.org/2000/svg" viewBox="0 0 850.39 425.2"><defs><style>.cls-1{fill:#040000;}</style></defs><g id="圖層_2" data-name="圖層 2"><path class="cls-1" d="M521.64,110.64h-68.9c-3.43,0-4.32,1.63-4.32,4.3v12.33c0,2.57.84,4.17,3.91,4.29H471.7c3.08.13,3.9,1.74,3.9,4.3v68.18c0,3.41,1.63,4.3,4.31,4.3h14.7c2.67,0,4.3-.89,4.3-4.3l0-68.18c0-2.56.82-4.17,3.91-4.3h18.79c3.42,0,4.31-1.64,4.31-4.3V114.94c0-2.67-.89-4.3-4.31-4.3"/><path class="cls-1" d="M439.07,110.64H422c-3.41,0-4.9.44-7,4.45,0,0,0,0,0,0a.22.22,0,0,0-.05.11,1.19,1.19,0,0,0-.09.15l-.12.21-.13.26a3.14,3.14,0,0,0-.18.31q-5.48,10.08-11,20.16c-.12.25-.26.51-.4.76s-.26.49-.41.73-.25.48-.37.7-.25.48-.38.7l-.37.67-.34.63c-.55,1-1.08,2.1-1.69,3.1-.37.56-.8,1.66-1.83,1.66s-1.48-1.1-1.83-1.66c-.62-1-1.14-2.06-1.7-3.1-.11-.21-.22-.43-.34-.63s-.25-.46-.37-.67-.25-.45-.37-.7-.25-.46-.4-.7-.26-.49-.39-.73l-.42-.76q-5.46-10.08-11-20.16a3,3,0,0,0-.16-.31l-.14-.26a2.12,2.12,0,0,1-.11-.21,1.19,1.19,0,0,1-.09-.15l-.06-.11,0,0c-2.08-4-3.58-4.45-7-4.45H356.22c-2.83,0-3.12,2.52-2.38,4.15l31.78,56.89v32.37c0,3.41,1.49,4.3,4.31,4.3h15.43c2.82,0,4.31-.89,4.31-4.3V171.68l31.78-56.89c.74-1.63.44-4.15-2.38-4.15"/><path class="cls-1" d="M609.36,187.57H562V168h39.8c3.41,0,4.3-1.65,4.3-4.31v-11.6c0-2.66-.89-4.3-4.3-4.3H562v-8h0v-3.84c0-.08,0-.14,0-.21v-4.08h3.9a2.55,2.55,0,0,1,.4,0h40.94c3.08-.12,3.92-1.73,3.92-4.29V114.94c0-2.68-.9-4.3-4.31-4.3h-64c-3.41,0-4.31,1.62-4.31,4.3v89.11c0,2.68.9,4.31,4.31,4.31h66.54c3.4,0,4.3-1.63,4.3-4.31V191.87c0-2.67-.9-4.3-4.3-4.3"/><path class="cls-1" d="M709.1,110.64H690.36c-1.81,0-3.76-.18-5.4.66a13.67,13.67,0,0,0-3.64,3.23l-3.68,4-9.9,10.91-10.15,11.18q-2,2.16-3.91,4.31c-.49.54-1.3,1.69-2.17,1.38s-.64-1.61-.64-2.27V116.41a14,14,0,0,0-.15-3.1,3.23,3.23,0,0,0-2.84-2.6,13.46,13.46,0,0,0-2-.07H632.32a6.71,6.71,0,0,0-2.78.4c-1.5.67-1.81,2.32-1.83,3.81,0,1.33,0,2.67,0,4V200.9c0,1.67-.27,3.9.35,5.46.81,2.1,3.17,2,5.05,2h13.43a5.2,5.2,0,0,0,2.92-.64c1.19-.8,1.41-2.35,1.41-3.68,0-3.66,0-7.32,0-11V178.81a4.5,4.5,0,0,1,0-1.16c.11-.28.51-.57.71-.78,1.72-1.79,3.42-3.58,5.14-5.38l3.36-3.53q6.4,10.68,12.76,21.38l8.31,14c1.51,2.54,3.5,4.69,6.59,5,1.71.16,3.46,0,5.15,0,4.65,0,9.3.08,13.94,0,2.79,0,3.43-2.82,2.16-4.9-.65-1.08-1.31-2.15-2-3.24-2.79-4.6-5.6-9.19-8.39-13.8q-3.92-6.45-7.83-12.9l-3.62-6c-2.66-4.36-5.29-8.72-8-13.09a5.53,5.53,0,0,1-.87-2.06,4.75,4.75,0,0,1,1.28-4c1.72-1.87,3.44-3.74,5.16-5.59l1.43-1.56c0-.19.58-.66.74-.83l2.13-2.32q3.43-3.69,6.83-7.39,3.9-4.23,7.81-8.47c1.88-2,3.77-4.1,5.67-6.15.36-.41.74-.81,1.11-1.21.91-1,1.41-2.83.12-3.77a2.68,2.68,0,0,0-1.56-.42"/><path class="cls-1" d="M339,110.48h-14.7a6.68,6.68,0,0,0-5.8,3.35c-6.61,10.21-13.15,19.68-20.19,30.78l-.35.57c-.54,1-1.1,1-1.48,1a1.54,1.54,0,0,1-1.49-1l-.34-.57c-7-11.1-13.58-20.57-20.19-30.78a6.67,6.67,0,0,0-5.8-3.35H254c-3.42,0-4.31,1.63-4.31,4.31v89.26c0,3.41,1.64,4.31,4.31,4.31h14.7c2.68,0,4.31-.9,4.31-4.31V153.19s11.6,16.39,11.68,16.49c2.76,3.4,5.77,7,10.38,7.6a9,9,0,0,0,1.44.1h0a8.78,8.78,0,0,0,1.42-.1c4.61-.6,7.62-4.2,10.39-7.6.09-.1,11.68-16.49,11.68-16.49v50.86c0,3.41,1.62,4.31,4.31,4.31H339c2.67,0,4.3-.9,4.3-4.31V114.79c0-2.68-.88-4.31-4.3-4.31"/><path class="cls-1" d="M205.48,187.16V166c-2.66,2.09-5.11,4.57-7.56,6.79-.59.54-1.22,1.07-1.85,1.57a.55.55,0,0,0-.09.07l-.07.05a16,16,0,0,1-2.55,1.63,12.56,12.56,0,0,1-10.8,0,15.88,15.88,0,0,1-2.54-1.63l-.07-.05a.31.31,0,0,0-.09-.07c-.65-.5-1.26-1-1.85-1.57-2.46-2.22-4.91-4.7-7.56-6.79v35.93c0,5.12,2.45,6.46,6.47,6.46H199c4,0,6.46-1.34,6.46-6.46l0-13.39Z"/><path class="cls-1" d="M232.67,110.48h-89.4c-3.42,0-4.32,1.63-4.32,4.31v14.27a9.34,9.34,0,0,0,.06,1,3.26,3.26,0,0,0,.05.33c0,.17,0,.33.08.48a3,3,0,0,0,1.72,2.13,4.66,4.66,0,0,0,1.64.26l15.87,0a13.74,13.74,0,0,1,1.94.13c7.3.9,12.48,6.75,17.7,11.47a20.46,20.46,0,0,0,4.56,3.33,12.54,12.54,0,0,0,10.79,0,21,21,0,0,0,4.58-3.33c5.19-4.71,10.33-10.52,17.59-11.45a13.47,13.47,0,0,1,2-.15l15.87,0A4.53,4.53,0,0,0,235,133a1.46,1.46,0,0,0,.28-.13l.27-.13a3.36,3.36,0,0,0,1.37-2.67,9.75,9.75,0,0,0,.06-1V114.79c0-2.68-.9-4.31-4.31-4.31"/><path class="cls-1" d="M341.19,303.8A54.24,54.24,0,0,1,326.73,298c3.27-3.25,6.38-6.63,7.38-9.68h.59a1.69,1.69,0,0,0,1.68-1.69v-4.54a1.69,1.69,0,0,0-1.68-1.69H320.81a18.62,18.62,0,0,0,.69-1.76,1.68,1.68,0,0,0-1.42-2.2l-4.62-.5a1.66,1.66,0,0,0-1.72,1,34,34,0,0,1-2.8,5.1s-.5-.88-1.22-.44l-4.57,2.9a1.68,1.68,0,0,0-.49,2.38c.37.53.76,1.07,1.16,1.61a19,19,0,0,1-3.55,2.86,1.69,1.69,0,0,0-.72,2.11l1.59,3.78c.57,1.35,1.67,1.75,2.54,1.26a26.07,26.07,0,0,0,5.25-4c1.13,1.17,3.34,2.32,4.61,3.45a58.93,58.93,0,0,1-15.2,5.17,1.68,1.68,0,0,0-1.31,2l.85,4.45a1.69,1.69,0,0,0,2,1.33,58.15,58.15,0,0,0,19.34-7.71,58.59,58.59,0,0,0,18.2,8.28,1.68,1.68,0,0,0,2-1.28l1-4.43a1.68,1.68,0,0,0-1.26-2m-23.26-15.45h6a.84.84,0,0,1,.69,1.33,23.75,23.75,0,0,1-2.86,3.18.85.85,0,0,1-1.13,0c-.86-.73-2.26-2.07-3.32-3.11a.84.84,0,0,1,.6-1.44"/><path class="cls-1" d="M302.58,280.82,296,270h10.55a9.83,9.83,0,0,1-3.7,3,1.7,1.7,0,0,0-.79,2.18l1.82,4.17a1.69,1.69,0,0,0,2.32.82c6.28-3.2,8.25-7.22,8.77-10.14h8.59v1.62a7.66,7.66,0,0,0,7.65,7.65h8.09a1.69,1.69,0,0,0,1.68-1.69V273a1.68,1.68,0,0,0-1.68-1.68h-7.83V270h9.62a1.69,1.69,0,0,0,1.69-1.68v-4.54a1.69,1.69,0,0,0-1.69-1.69H324.39v-6.32h13.69a1.69,1.69,0,0,0,1.69-1.69V249.5a1.69,1.69,0,0,0-1.69-1.69H324.39v-4.53a1.69,1.69,0,0,0-1.68-1.69h-4.85a1.69,1.69,0,0,0-1.68,1.69v4.53h-12a1.69,1.69,0,0,0-1.68,1.69V254a1.69,1.69,0,0,0,1.68,1.69h12v6.32h-22v-8.72c2.54-.85,4.84-1.71,6.53-2.44a1.69,1.69,0,0,0,.79-2.34l-2.15-4a1.7,1.7,0,0,0-2.16-.75,103.66,103.66,0,0,1-18.79,5.55A1.68,1.68,0,0,0,277,251.1l.26,4.54a1.69,1.69,0,0,0,1.93,1.58,66.46,66.46,0,0,0,6.81-1.44v6.27H278.7a1.69,1.69,0,0,0-1.69,1.69v4.54A1.69,1.69,0,0,0,278.7,270h5.78c-1.67,7.87-5.84,19.82-9.36,25.38a1.69,1.69,0,0,0,.38,2.26l3.8,2.93a1.69,1.69,0,0,0,2.48-.47,43,43,0,0,0,4.2-11.14v19.56a1.69,1.69,0,0,0,1.68,1.69h4.84a1.69,1.69,0,0,0,1.69-1.69v-28.7l1.58,4.74a1.69,1.69,0,0,0,2.47.91l3.78-2.3a1.68,1.68,0,0,0,.56-2.31"/><path class="cls-1" d="M380.91,296.91v-27a1.69,1.69,0,0,0-1.69-1.69H365.14A84.53,84.53,0,0,0,371,253.51h8.22a1.69,1.69,0,0,0,1.69-1.68V247a1.69,1.69,0,0,0-1.69-1.68h-21.6a1.69,1.69,0,0,0-1.69,1.68v4.85a1.69,1.69,0,0,0,1.69,1.68H362c-1.81,5.21-7,16.8-10.89,21.52a1.65,1.65,0,0,0-.18,1.86l2.8,5.14a1.68,1.68,0,0,0,2.91.07c.34-.54.61-1,.72-1.13v24a1.69,1.69,0,0,0,1.69,1.69h5.65a1.69,1.69,0,0,0,1.69-1.69v-2.25h12.8a1.69,1.69,0,0,0,1.69-1.69ZM371,294.54h-3.77a.84.84,0,0,1-.84-.84V277.3a.84.84,0,0,1,.84-.84H371a.84.84,0,0,1,.85.84v16.4a.84.84,0,0,1-.85.84"/><path class="cls-1" d="M416.11,271.1V253.51h2.94a1.69,1.69,0,0,0,1.69-1.68V247a1.69,1.69,0,0,0-1.69-1.68H386.88A1.68,1.68,0,0,0,385.2,247v4.85a1.68,1.68,0,0,0,1.68,1.68H390V271.1h-5.22a1.69,1.69,0,0,0-1.69,1.69v4.84a1.69,1.69,0,0,0,1.69,1.69H390v2.83c0,6.55-2.69,18.3-10,25.08a1.68,1.68,0,0,0-.16,2.27l3.67,4.58a1.7,1.7,0,0,0,2.47.19c10.44-9.38,13.27-24.44,13.27-32.12v-2.83h7.69v28.82a1.69,1.69,0,0,0,1.69,1.68h5.86a1.68,1.68,0,0,0,1.68-1.68V279.32h4.46a1.69,1.69,0,0,0,1.68-1.69v-4.84a1.69,1.69,0,0,0-1.68-1.69Zm-10.07,0h-6a.85.85,0,0,1-.85-.84v-15.9a.85.85,0,0,1,.85-.85h6a.84.84,0,0,1,.84.85v15.9a.84.84,0,0,1-.84.84"/><path class="cls-1" d="M500,289.21l-1-5.56a1.69,1.69,0,0,0-2-1.34l-4.92.93v-40a1.69,1.69,0,0,0-1.69-1.69h-5.86a1.69,1.69,0,0,0-1.68,1.69V285l-20.62,3.9a1.69,1.69,0,0,0-1.34,2l1.05,5.56a1.7,1.7,0,0,0,2,1.34l18.93-3.59v14.31a1.69,1.69,0,0,0,1.68,1.69h5.86a1.69,1.69,0,0,0,1.69-1.69V292.43l6.6-1.25a1.7,1.7,0,0,0,1.34-2"/><path class="cls-1" d="M475.33,262.13l4.29-3.76a1.66,1.66,0,0,0,.06-2.45,112,112,0,0,0-9.89-8.49,1.66,1.66,0,0,0-2.37.33l-3.36,4.6a1.65,1.65,0,0,0,.33,2.3,104.3,104.3,0,0,1,8.67,7.4,1.66,1.66,0,0,0,2.27.07"/><path class="cls-1" d="M473.89,281.63l4.29-3.76a1.66,1.66,0,0,0,.1-2.41,138.67,138.67,0,0,0-10.53-9.78,1.68,1.68,0,0,0-2.42.32L462,270.57a1.67,1.67,0,0,0,.28,2.29c2.51,2.07,6.78,6,9.33,8.67a1.64,1.64,0,0,0,2.29.1"/><path class="cls-1" d="M449.08,253.33c2.54-.85,4.84-1.71,6.52-2.44a1.69,1.69,0,0,0,.8-2.34l-2.15-4a1.7,1.7,0,0,0-2.16-.75,103.66,103.66,0,0,1-18.79,5.55,1.68,1.68,0,0,0-1.43,1.76l.26,4.54a1.69,1.69,0,0,0,1.92,1.58,65.91,65.91,0,0,0,6.81-1.44v6.27h-7.27a1.69,1.69,0,0,0-1.69,1.69v4.54a1.68,1.68,0,0,0,1.69,1.68h5.78c-1.67,7.87-5.84,19.82-9.37,25.38a1.71,1.71,0,0,0,.38,2.26l3.81,2.93a1.68,1.68,0,0,0,2.47-.47,42.66,42.66,0,0,0,4.2-11.14v19.56a1.69,1.69,0,0,0,1.69,1.69h4.84a1.69,1.69,0,0,0,1.69-1.69v-28.7l1.58,4.74a1.69,1.69,0,0,0,2.47.91l3.78-2.3a1.69,1.69,0,0,0,.56-2.31L450.88,270h8.24a1.68,1.68,0,0,0,1.68-1.68v-4.54a1.69,1.69,0,0,0-1.68-1.69h-10Z"/><path class="cls-1" d="M559.48,296.44c4.15-4.93,7.51-11.2,10.49-19.2a45.94,45.94,0,0,0,1.92-6.21,1.68,1.68,0,0,0-1.65-2H556.35v-6.79h14.51a1.69,1.69,0,0,0,1.68-1.69V255.7a1.69,1.69,0,0,0-1.68-1.69H556.35V243.2a1.69,1.69,0,0,0-1.69-1.69H549a1.69,1.69,0,0,0-1.69,1.69V254H525V243.2a1.69,1.69,0,0,0-1.69-1.69h-5.65a1.69,1.69,0,0,0-1.69,1.69V254h-5.48a1.69,1.69,0,0,0-1.69,1.69v4.84a1.69,1.69,0,0,0,1.69,1.69h5.48v15.41l-6.46,1.94a1.68,1.68,0,0,0-1.13,2.1L510,287.1a1.69,1.69,0,0,0,2.1,1.13l3.86-1.17v12.6l-5.51,1.47a1.69,1.69,0,0,0-1.19,2.07l1.46,5.46a1.68,1.68,0,0,0,2.06,1.19l6-1.6,5-1.33a1.69,1.69,0,0,0,1.25-1.63V284.35l7.35-2.21a1.69,1.69,0,0,0,1.12-2.11l-1.63-5.41a1.67,1.67,0,0,0-2.09-1.13L525,274.92V262.23h22.37V269H534.46a1.69,1.69,0,0,0-1.68,1.69v4.84a1.68,1.68,0,0,0,1.68,1.69H537a41.06,41.06,0,0,0,10.05,19.44c-4.6,3.2-10.21,5.29-17.32,6.75a1.69,1.69,0,0,0-1.34,2l.89,4.76a1.69,1.69,0,0,0,2,1.35c9.16-1.87,16.32-4.75,22.13-9.24a68.47,68.47,0,0,0,18.41,8.91,1.69,1.69,0,0,0,2.15-1.08l1.48-4.62a1.68,1.68,0,0,0-1.08-2.11,62.64,62.64,0,0,1-14.91-6.92m-6.94-6a32.66,32.66,0,0,1-6.69-12.07.85.85,0,0,1,.81-1.09H559.9a.84.84,0,0,1,.77,1.18,50.18,50.18,0,0,1-6.84,11.95.85.85,0,0,1-1.29,0"/></g></svg>